<?xml version="1.0" standalone="no"?>
<!DOCTYPE svg PUBLIC "-//W3C//DTD SVG 20010904//EN"
 "http://www.w3.org/TR/2001/REC-SVG-20010904/DTD/svg10.dtd">
<svg version="1.0" xmlns="http://www.w3.org/2000/svg"
 width="72.000000pt" height="72.000000pt" viewBox="0 0 72.000000 72.000000"
 preserveAspectRatio="xMidYMid meet">
<metadata>
Created by potrace 1.11, written by Peter Selinger 2001-2013
</metadata>
<g transform="translate(0.000000,72.000000) scale(0.100000,-0.100000)"
fill="#000000" stroke="none">
<path d="M259 681 c-56 -11 -100 -42 -123 -86 -19 -37 -21 -56 -21 -235 0
-228 8 -256 86 -300 42 -24 51 -25 209 -25 l165 0 3 43 3 42 -133 0 c-146 0
-195 9 -224 41 -17 19 -19 38 -19 199 0 161 2 180 19 199 29 32 78 41 224 41
l133 0 -3 43 -3 42 -140 1 c-77 1 -156 -1 -176 -5z"/>
<path d="M251 551 c-23 -23 -34 -69 -29 -131 l3 -45 145 0 145 0 0 40 0 40
-97 3 c-54 1 -98 7 -98 12 0 5 57 11 128 12 l127 3 3 43 3 42 -155 0 c-141 0
-158 -2 -175 -19z"/>
<path d="M227 344 c-11 -11 -8 -108 4 -143 6 -17 19 -36 29 -41 10 -6 87 -10
170 -10 l151 0 -3 43 -3 42 -127 3 c-71 1 -128 7 -128 12 0 5 44 11 98 12 l97
3 0 40 0 40 -141 3 c-77 1 -143 -1 -147 -4z"/>
</g>
</svg>
